# AST/ASF file generated using VICON BodyLanguage
# -----------------------------------------------
:version 1.10
:name VICON
:units
  mass 1.0
  length 0.45
  angle deg
:documentation
   .ast/.asf automatically generated from VICON data using
   VICON BodyBuilder and BodyLanguage model FoxedUp or BRILLIANT.MOD
:root
   order TX TY TZ RX RY RZ
   axis XYZ
   position 0 0 0  
   orientation 0 0 0 
:bonedata
  begin
     id 1 
     name lhipjoint
     direction 0.560651 -0.75055 0.34978 
     length 2.44936 
     axis 0 0 0  XYZ
  end
  begin
     id 2 
     name lfemur
     direction 0.34202 -0.939693 0  
     length 7.42139  
     axis 0 0 20  XYZ
    dof rx ry rz
    limits (-160.0 20.0)
           (-70.0 70.0)
           (-60.0 70.0)
  end
  begin
     id 3 
     name ltibia
     direction 0.34202 -0.939693 0   
     length 7.75674   
     axis 0 0 20   XYZ
    dof rx
    limits (-10.0 170.0)
  end
  begin
     id 4 
     name lfoot
     direction 0.0925879 -0.254383 0.962661   
     length 2.38688   
     axis -90 7.62852e-016 20   XYZ
    dof rx rz
    limits (-45.0 90.0)
           (-70.0 20.0)
  end
  begin
     id 5 
     name ltoes
     direction 1.53567e-011 -4.21973e-011 1   
     length 1.19228   
     axis -90 7.62852e-016 20   XYZ
    dof rx
    limits (-90.0 20.0)
  end
  begin
     id 6 
     name rhipjoint
     direction -0.540087 -0.762838 0.355506   
     length 2.4099  
     axis 0 0 0  XYZ 
  end
  begin
     id 7 
     name rfemur
     direction -0.34202 -0.939693 0   
     length 7.70794   
     axis 0 0 -20   XYZ
    dof rx ry rz
    limits (-160.0 20.0)
           (-70.0 70.0)
           (-70.0 60.0)
  end
  begin
     id 8 
     name rtibia
     direction -0.34202 -0.939693 0   
     length 7.66106   
     axis 0 0 -20   XYZ
    dof rx
    limits (-10.0 170.0)
 end
 begin
     id 9 
     name rfoot
     direction -0.0830975 -0.228308 0.970036   
     length 2.4989  
     axis -90 -7.62852e-016 -20   XYZ
    dof rx rz
    limits (-45.0 90.0)
           (-20.0 70.0)
  end
  begin
     id 10 
     name rtoes
     direction -1.53517e-011 -4.21842e-011 1   
     length 1.2498   
     axis -90 -7.62852e-016 -20   XYZ
    dof rx
    limits (-90.0 20.0)
  end
  begin
     id 11 
     name lowerback
     direction 0.0266356 0.99402 -0.105896   
     length 2.1545   
     axis 0 0 0   XYZ
    dof rx ry rz
    limits (-20.0 45.0)
           (-30.0 30.0)
           (-30.0 30.0)
  end
  begin
     id 12 
     name upperback
     direction 0.0130547 0.999192 0.0380027   
     length 2.1434   
     axis 0 0 0   XYZ
    dof rx ry rz
    limits (-20.0 45.0)
           (-30.0 30.0)
           (-30.0 30.0)
  end
  begin
     id 13 
     name thorax
     direction 0.000590299 0.996288 0.0860764   
     length 2.19049   
     axis 0 0 0   XYZ
    dof rx ry rz
    limits (-20.0 45.0)
           (-30.0 30.0)
           (-30.0 30.0)
  end
  begin
     id 14 
     name lowerneck
     direction -0.0432125 0.978219 0.203028   
     length 1.62441   
     axis 0 0 0   XYZ
    dof rx ry rz
    limits (-20.0 45.0)
           (-30.0 30.0)
           (-30.0 30.0)
  end
  begin
     id 15 
     name upperneck
     direction -0.0192309 0.991699 -0.127138   
     length 1.66666   
     axis 0 0 0   XYZ
    dof rx ry rz
    limits (-20.0 45.0)
           (-30.0 30.0)
           (-30.0 30.0)
  end
  begin
     id 16
     name head
     direction -0.00434499 0.997882 -0.0649107  
     length 1.67142  
     axis 0 0 0   XYZ
    dof rx ry rz
    limits (-20.0 45.0)
           (-30.0 30.0)
           (-30.0 30.0)
  end
  begin
     id 17 
     name lclavicle
     direction 0.970351 0.240904 -0.0196058  
     length 4.04862  
     axis 0 0 0   XYZ
    dof ry rz
    limits (-20.0 10.0)
           (0.0 20.0)
  end
  begin
     id 18 
     name lhumerus
     direction 1 -4.4896e-011 -1.40911e-018   
     length 5.58345   
     axis 180 -30 -90   XYZ
    dof rx ry rz
    limits (-60.0 90.0)
           (-90.0 90.0)
           (-90.0 90.0)
  end
  begin
     id 19
     name lradius
     direction 1 -4.48968e-011 5.88912e-028   
     length 3.71087   
     axis 180 -30 -90   XYZ
    dof rx
    limits (-10.0 170.0)
  end
  begin
     id 20
     name lwrist
     direction 1 -4.48955e-011 -8.83775e-028   
     length 1.85544   
     axis 5.52448e-016 90 90   XYZ
    dof ry
    limits (-180.0 0.0)
 end
  begin
     id 21 
     name lhand
     direction 1 -4.49035e-011 -1.76755e-027   
     length 0.562322   
     axis 1.12785e-015 90 90   XYZ
    dof rx rz
    limits (-90.0 90.0)
           (-45.0 45.0)
  end
  begin
     id 22 
     name lfingers
     direction 1 -4.48824e-011 -3.5351e-027   
     length 0.453359   
     axis 2.2557e-015 90 90   XYZ
    dof rx
    limits (0.0 90.0)
  end
  begin
     id 23
     name lthumb
     direction 0.707107 -6.34888e-011 0.707107   
     length 0.650935   
     axis -90 45 2.85299e-015   XYZ
    dof rx rz
    limits (-45.0 45.0)
           (-45.0 45.0)
  end
  begin
     id 24 
     name rclavicle
     direction -0.96165 0.268562 -0.0557131   
     length 4.05446  
     axis 0 0 0   XYZ 
    dof ry rz
    limits (-10.0 20.0)
           (-20.0 0.0)
  end
  begin
     id 25 
     name rhumerus
     direction -1 -4.48957e-011 -3.36329e-027  
     length 5.20357   
     axis 180 30 90   XYZ
    dof rx ry rz
    limits (-90.0 60.0)
           (-90.0 90.0)
           (-90.0 90.0)
  end
  begin
     id 26 
     name rradius
     direction -1 -4.48974e-011 4.51441e-027   
     length 3.64937   
     axis 180 30 90   XYZ
    dof rx
    limits (-10.0 170.0)
  end
  begin
     id 27 
     name rwrist
     direction -1 -4.4896e-011 -8.83775e-028   
     length 1.82468   
     axis 5.52448e-016 -90 -90   XYZ
    dof ry
    limits (-180.0 0.0)
  end
  begin
     id 28
     name rhand
     direction -1 -4.48996e-011 -1.76755e-027   
     length 0.617996   
     axis 1.12785e-015 -90 -90   XYZ
    dof rx rz
    limits (-90.0 90.0)
           (-45.0 45.0)
  end
  begin
     id 29
     name rfingers
     direction -1 -4.48957e-011 -3.5351e-027   
     length 0.498244   
     axis 2.2557e-015 -90 -90   XYZ
    dof rx
    limits (0.0 90.0)
  end
  begin
     id 30
     name rthumb
     direction -0.707107 -6.34931e-011 0.707107   
     length 0.715382   
     axis -90 -45 -2.85299e-015   XYZ
    dof rx rz
    limits (-45.0 45.0)
           (-45.0 45.0)
  end
:hierarchy
  begin
    root lhipjoint rhipjoint lowerback
    lhipjoint lfemur
    lfemur ltibia
    ltibia lfoot
    lfoot ltoes
    rhipjoint rfemur
    rfemur rtibia
    rtibia rfoot
    rfoot rtoes
    lowerback upperback
    upperback thorax
    thorax lowerneck lclavicle rclavicle
    lowerneck upperneck
    upperneck head
    lclavicle lhumerus
    lhumerus lradius
    lradius lwrist
    lwrist lhand lthumb
    lhand lfingers
    rclavicle rhumerus
    rhumerus rradius
    rradius rwrist
    rwrist rhand rthumb
    rhand rfingers
  end

#!OML:ASF H:\ManfredETheater\Project 1\Capture day 2\Session 1\Male1.ASF
:FULLY-SPECIFIED
:DEGREES
103
root -0.161203 13.9426 8.78515 20.5557 -1.91527 -3.80569
lowerback 40.9379 3.90009 0.199759
upperback 15.7356 4.51543 -1.08839
thorax -1.98059 2.21034 -2.83314
lowerneck -3.95292 -1.8323 -5.76785
upperneck -6.57366 -2.40387 -2.04506
head -1.33373 -1.04588 0.319463
rclavicle 7.15625e-015 -5.96354e-015
rhumerus -20.0913 -0.746126 -69.3498
rradius 63.55
rwrist -4.47849
rhand -36.0065 -13.5005
rfingers 7.12502
rthumb -9.1161 -43.2835
lclavicle 7.15625e-015 -5.96354e-015
lhumerus -33.6674 12.4324 78.5606
lradius 74.4414
lwrist 26.5563
lhand -26.8605 -1.09714
lfingers 7.12502
lthumb -0.285399 28.8824
rfemur -32.2675 2.54973 16.3355
rtibia 99.1153
rfoot 1.111 1.80164
rtoes -22.7313
lfemur -88.0858 11.1353 -24.4261
ltibia 86.1705
lfoot -12.0049 -2.85564
ltoes -1.07374
104
root -0.191827 13.9896 9.33693 20.5448 -1.39716 -3.99382
lowerback 41.4245 4.12007 0.196758
upperback 15.0714 4.77015 -1.16315
thorax -2.83914 2.32132 -3.0475
lowerneck -4.29533 -2.06717 -5.80051
upperneck -6.9773 -2.69667 -1.789
head -1.39549 -1.18664 0.402587
rclavicle -2.42517e-014 2.57426e-014
rhumerus -22.357 -0.932586 -71.5649
rradius 59.0931
rwrist -3.0358
rhand -35.4543 -12.5925
rfingers 7.12502
rthumb -8.58325 -42.3981
lclavicle -2.42517e-014 2.57426e-014
lhumerus -32.9053 12.134 78.8322
lradius 75.3921
lwrist 25.0545
lhand -26.9635 -1.72316
lfingers 7.12502
lthumb -0.384877 28.2562
rfemur -32.4128 2.7359 17.5077
rtibia 100.406
rfoot -0.550281 -0.202685
rtoes -22.0009
lfemur -86.7191 11.7303 -24.242
ltibia 87.9317
lfoot -14.1206 -2.96031
ltoes -1.32262
105
root -0.217282 14.0557 9.89113 20.1727 -0.232511 -3.87408
lowerback 42.2598 3.8922 0.464323
upperback 14.4484 4.60537 -1.25046
thorax -3.75177 2.24605 -3.27566
lowerneck -4.59504 -2.20502 -5.7535
upperneck -7.7338 -2.87359 -1.50885
head -1.57966 -1.26131 0.484554
rclavicle 4.05521e-014 -4.62174e-014
rhumerus -24.3807 -0.898381 -73.7891
rradius 54.4744
rwrist -0.742048
rhand -34.8461 -11.4937
rfingers 7.12502
rthumb -7.99621 -41.3225
lclavicle 4.05521e-014 -4.62174e-014
lhumerus -32.6563 11.8915 78.9656
lradius 77.2823
lwrist 24.019
lhand -26.7706 -1.20817
lfingers 7.12502
lthumb -0.198484 28.7715
rfemur -32.2657 1.61311 18.6302
rtibia 101.686
rfoot -1.9034 -1.75448
rtoes -21.2981
lfemur -84.7327 11.6855 -24.0604
ltibia 89.4642
lfoot -15.9795 -3.24478
ltoes -2.53345
106
root -0.244851 14.0942 10.4098 20.674 1.4923 -3.48994
lowerback 41.9347 3.32331 0.886094
upperback 13.8302 4.13437 -1.29319
thorax -4.34711 2.0381 -3.37717
lowerneck -4.84305 -2.29728 -5.75137
upperneck -8.74356 -2.99407 -1.19765
head -1.85668 -1.30035 0.588273
rclavicle -2.34566e-014 3.65764e-014
rhumerus -26.2399 -0.525037 -75.9327
rradius 49.9763
rwrist 1.6754
rhand -33.7403 -10.4286
rfingers 7.12502
rthumb -6.92886 -40.2952
lclavicle -2.34566e-014 3.65764e-014
lhumerus -32.6535 11.747 79.1674
lradius 79.4617
lwrist 23.6625
lhand -26.5703 -1.48049
lfingers 7.12502
lthumb -0.00506112 28.4992
rfemur -33.8663 -0.592807 19.6034
rtibia 103.474
rfoot -2.53701 -2.98061
rtoes -20.164
lfemur -83.9889 10.8435 -23.9722
ltibia 90.8984
lfoot -16.9491 -3.68496
ltoes -4.56558
107
root -0.264727 14.1711 10.9216 21.2277 3.33391 -2.71085
lowerback 41.5742 2.67177 1.21915
upperback 13.2602 3.53262 -1.31873
thorax -4.89344 1.76587 -3.36224
lowerneck -5.0751 -2.40543 -5.70567
upperneck -9.90342 -3.14242 -0.946476
head -2.19059 -1.35065 0.669176
rclavicle 4.77083e-014 -5.00937e-014
rhumerus -28.0203 -0.184065 -77.882
rradius 45.8091
rwrist 4.23046
rhand -32.2129 -9.01874
rfingers 7.12502
rthumb -5.45431 -38.9285
lclavicle 4.77083e-014 -5.00937e-014
lhumerus -32.824 11.539 79.6127
lradius 82.119
lwrist 23.9885
lhand -26.358 -1.89623
lfingers 7.12502
lthumb 0.200014 28.0834
rfemur -35.6867 -3.45308 20.1591
rtibia 105.235
rfoot -3.80372 -3.66408
rtoes -20.4012
lfemur -82.9918 9.51614 -24.0917
ltibia 92.0084
lfoot -17.4387 -3.87212
ltoes -7.7592
108
root -0.283894 14.244 11.4329 21.59 4.71338 -1.82507
lowerback 41.4061 2.31199 1.18143
upperback 12.7753 3.1261 -1.31253
thorax -5.40803 1.57223 -3.19703
lowerneck -5.15123 -2.58323 -5.42917
upperneck -11.2566 -3.41387 -0.793396
head -2.62412 -1.46579 0.686965
rclavicle -9.14409e-015 2.56432e-014
rhumerus -29.7491 0.0742345 -79.6663
rradius 42.0978
rwrist 6.83353
rhand -30.6438 -7.29888
rfingers 7.12502
rthumb -3.93915 -37.2422
lclavicle -9.14409e-015 2.56432e-014
lhumerus -33.0106 11.1287 80.3025
lradius 85.04
lwrist 24.781
lhand -26.2463 -2.31302
lfingers 7.12502
lthumb 0.307863 27.6665
rfemur -37.482 -6.16737 20.427
rtibia 107.035
rfoot -5.60526 -4.08581
rtoes -16.7581
lfemur -81.8055 8.67415 -24.3935
ltibia 93.0525
lfoot -17.6043 -4.34374
ltoes -10.3491
109
root -0.301102 14.3311 11.9507 21.5579 5.6717 -0.943293
lowerback 41.7101 2.18754 0.911411
upperback 12.3633 2.90055 -1.29941
thorax -5.97761 1.45675 -2.98079
lowerneck -5.53623 -2.80124 -5.39566
upperneck -12.42 -3.6916 -0.52317
head -2.94212 -1.58535 0.777376
rclavicle 1.31198e-014 -4.6118e-014
rhumerus -31.3508 -0.205959 -81.3027
rradius 38.6127
rwrist 9.60721
rhand -29.5832 -5.38706
rfingers 7.12502
rthumb -2.91493 -35.3469
lclavicle 1.31198e-014 -4.6118e-014
lhumerus -33.118 10.5124 81.1735
lradius 88.0388
lwrist 25.8107
lhand -26.3195 -2.6093
lfingers 7.12502
lthumb 0.237119 27.3703
rfemur -39.0494 -8.50913 20.6402
rtibia 108.655
rfoot -7.72514 -4.5087
rtoes -13.8357
lfemur -80.03 8.30127 -24.6691
ltibia 93.9454
lfoot -17.5576 -5.07179
ltoes -12.5877
110
root -0.307385 14.4177 12.4633 21.6054 6.61893 0.00845125
lowerback 41.8975 1.99681 0.746673
upperback 11.983 2.63192 -1.30694
thorax -6.474 1.32787 -2.81732
lowerneck -5.77635 -2.94063 -5.18023
upperneck -13.6628 -3.8956 -0.461846
head -3.32865 -1.66775 0.774477
rclavicle -1.78906e-014 -3.97569e-015
rhumerus -33.1413 -0.197495 -82.891
rradius 35.9928
rwrist 11.5058
rhand -28.7514 -3.99035
rfingers 7.12502
rthumb -2.11163 -33.9596
lclavicle -1.78906e-014 -3.97569e-015
lhumerus -33.282 9.67045 82.1253
lradius 91.0244
lwrist 26.1393
lhand -26.2018 -3.09266
lfingers 7.12502
lthumb 0.350815 26.8868
rfemur -40.9599 -10.8506 20.8834
rtibia 110.142
rfoot -10.084 -5.4498
rtoes -14.4877
lfemur -78.2506 7.83835 -24.9597
ltibia 94.7152
lfoot -17.3703 -5.79296
ltoes -15.6685
111
root -0.303526 14.4897 12.9666 22.0043 7.51179 1.00442
lowerback 41.5896 1.75303 0.649286
upperback 11.5958 2.32 -1.35189
thorax -6.83165 1.18368 -2.69821
lowerneck -6.22844 -3.07399 -5.39238
upperneck -14.5899 -4.0209 -0.104143
head -3.56212 -1.70788 0.933062
rclavicle -2.22639e-014 -1.98785e-016
rhumerus -34.9665 -0.230735 -84.409
rradius 33.8593
rwrist 12.8522
rhand -28.4547 -3.01381
rfingers 7.12502
rthumb -1.82509 -32.9857
lclavicle -2.22639e-014 -1.98785e-016
lhumerus -33.4891 8.78667 83.1155
lradius 93.8429
lwrist 25.9557
lhand -25.9017 -3.29257
lfingers 7.12502
lthumb 0.640658 26.6862
rfemur -43.6147 -13.0416 21.1774
rtibia 111.565
rfoot -11.7065 -5.93614
rtoes -12.6917
lfemur -76.8832 7.12782 -25.2411
ltibia 95.3701
lfoot -16.6969 -6.55776
ltoes -17.3355
112
root -0.31094 14.5642 13.4795 22.2334 8.22931 1.71807
lowerback 41.2707 1.69763 0.515575
upperback 11.3048 2.22793 -1.25205
thorax -7.07263 1.13675 -2.48903
lowerneck -6.86398 -3.28301 -5.64773
upperneck -15.34 -4.22084 0.294833
head -3.69842 -1.78916 1.10803
rclavicle 3.26007e-014 -4.13472e-014
rhumerus -36.6253 -0.411681 -85.691
rradius 32.0931
rwrist 13.8863
rhand -28.2577 -2.25844
rfingers 7.12502
rthumb -1.63483 -32.2319
lclavicle 3.26007e-014 -4.13472e-014
lhumerus -33.6339 7.74419 84.2623
lradius 96.371
lwrist 24.7153
lhand -25.6417 -3.73368
lfingers 7.12502
lthumb 0.891839 26.2442
rfemur -46.341 -14.5643 21.9232
rtibia 112.738
rfoot -13.6463 -7.11125
rtoes -12.6575
lfemur -75.3062 6.9256 -25.2499
ltibia 95.921
lfoot -16.2061 -7.44474
ltoes -19.8189
113
root -0.315023 14.6381 13.9889 22.2191 8.41129 2.13536
lowerback 41.1895 1.84886 0.240188
upperback 10.9446 2.30788 -1.2171
thorax -7.45588 1.16395 -2.35012
lowerneck -7.21225 -3.41466 -5.58319
upperneck -16.1226 -4.3606 0.552015
head -3.91009 -1.85173 1.18944
rclavicle 1.74931e-014 -7.95139e-016
rhumerus -38.2975 -1.1636 -86.672
rradius 30.6036
rwrist 15.8588
rhand -28.6645 -1.71329
rfingers 7.12502
rthumb -2.02765 -31.6834
lclavicle 1.74931e-014 -7.95139e-016
lhumerus -33.9911 6.6949 85.2376
lradius 98.5676
lwrist 22.6934
lhand -25.1866 -4.50104
lfingers 7.12502
lthumb 1.33138 25.4745
rfemur -49.132 -15.2507 22.7895
rtibia 113.642
rfoot -15.5181 -8.42203
rtoes -11.1675
lfemur -73.4364 7.32567 -25.0951
ltibia 96.3038
lfoot -15.3961 -8.37418
ltoes -20.9428
114
root -0.316948 14.7132 14.5089 22.1721 8.76204 2.59332
lowerback 40.8456 1.86685 0.03788
upperback 10.6796 2.26815 -1.1365
thorax -7.65746 1.14058 -2.14441
lowerneck -7.20953 -3.54865 -4.97551
upperneck -17.066 -4.60356 0.409295
head -4.26483 -1.98161 1.05737
rclavicle -2.46493e-014 4.77083e-015
rhumerus -39.7158 -2.48369 -87.1444
rradius 29.1909
rwrist 18.3656
rhand -29.2361 -1.05442
rfingers 7.12502
rthumb -2.57972 -31.0186
lclavicle -2.46493e-014 4.77083e-015
lhumerus -34.3435 5.64402 86.2644
lradius 100.458
lwrist 20.2228
lhand -25.0862 -5.13253
lfingers 7.12502
lthumb 1.42831 24.8424
rfemur -51.9714 -15.8226 23.6035
rtibia 114.253
rfoot -17.0909 -9.64285
rtoes -10.3994
lfemur -71.3203 7.54532 -24.8598
ltibia 96.4897
lfoot -14.5374 -9.29295
ltoes -21.6722
115
root -0.311026 14.783 15.0276 22.1712 9.03186 3.13869
lowerback 40.3272 1.84027 -0.138705
upperback 10.4318 2.18301 -1.08775
thorax -7.78347 1.09889 -1.96326
lowerneck -7.46438 -3.66088 -4.97105
upperneck -17.6274 -4.7308 0.548681
head -4.42122 -2.0374 1.10926
rclavicle 5.56597e-015 2.38542e-014
rhumerus -41.0595 -3.83982 -87.2897
rradius 28.1393
rwrist 20.2866
rhand -29.795 -0.475527
rfingers 7.12502
rthumb -3.11944 -30.4325
lclavicle 5.56597e-015 2.38542e-014
lhumerus -34.7718 4.55556 87.2606
lradius 102.075
lwrist 17.8348
lhand -24.8864 -5.87835
lfingers 7.12502
lthumb 1.62132 24.0952
rfemur -55.0144 -16.1101 24.2319
rtibia 114.544
rfoot -18.6928 -10.8979
rtoes -9.67497
lfemur -69.1263 7.67076 -24.7644
ltibia 96.4681
lfoot -14.1379 -9.89026
ltoes -24.4132
116
root -0.302277 14.8481 15.5493 22.1946 9.23152 3.68929
lowerback 39.7138 1.78171 -0.34216
upperback 10.13 2.04429 -1.07925
thorax -7.93659 1.0327 -1.7889
lowerneck -7.66064 -3.70255 -4.92564
upperneck -18.0332 -4.7638 0.676328
head -4.53488 -2.05201 1.14811
rclavicle -1.59028e-015 2.38542e-015
rhumerus -42.3267 -5.52121 -87.1228
rradius 27.2122
rwrist 22.2135
rhand -30.7291 -0.509515
rfingers 7.12502
rthumb -4.02156 -30.4513
lclavicle -1.59028e-015 2.38542e-015
lhumerus -35.3312 3.49011 88.1426
lradius 103.446
lwrist 15.7764
lhand -24.5154 -6.8399
lfingers 7.12502
lthumb 1.97959 23.1307
rfemur -58.1677 -16.1418 24.7382
rtibia 114.442
rfoot -19.8786 -12.0395
rtoes -9.72133
lfemur -66.8701 7.80959 -24.694
ltibia 96.2778
lfoot -13.3377 -10.4629
ltoes -25.5916
117
root -0.285544 14.9093 16.0747 22.1863 9.35361 4.29802
lowerback 38.9539 1.6736 -0.595615
upperback 9.88188 1.82695 -1.10091
thorax -7.97859 0.932631 -1.58546
lowerneck -7.9356 -3.69304 -5.56444
upperneck -18.19 -4.62637 1.24515
head -4.52224 -1.95975 1.44663
rclavicle 3.97569e-015 6.75868e-015
rhumerus -43.4557 -7.00448 -86.8037
rradius 26.6123
rwrist 23.1242
rhand -31.1999 -0.577397
rfingers 7.12502
rthumb -4.47615 -30.5101
lclavicle 3.97569e-015 6.75868e-015
lhumerus -35.9542 2.51577 88.9793
lradius 104.723
lwrist 14.2824
lhand -24.3444 -6.98767
lfingers 7.12502
lthumb 2.14476 22.9813
rfemur -61.3284 -15.8343 24.9316
rtibia 113.907
rfoot -21.0105 -12.6442
rtoes -8.05457
lfemur -64.4051 7.88776 -24.703
ltibia 95.8287
lfoot -12.3666 -10.838
ltoes -25.9144
